<?xml version="1.0" encoding="UTF-8" standalone="no"?>
<!-- Created with Inkscape (http://www.inkscape.org/) -->

<svg
   xmlns:dc="http://purl.org/dc/elements/1.1/"
   xmlns:cc="http://creativecommons.org/ns#"
   xmlns:rdf="http://www.w3.org/1999/02/22-rdf-syntax-ns#"
   xmlns:svg="http://www.w3.org/2000/svg"
   xmlns="http://www.w3.org/2000/svg"
   xmlns:sodipodi="http://sodipodi.sourceforge.net/DTD/sodipodi-0.dtd"
   xmlns:inkscape="http://www.inkscape.org/namespaces/inkscape"
   width="256"
   height="256"
   viewBox="0 0 256 256"
   id="svg4280"
   version="1.1"
   inkscape:version="0.91 r13725"
   sodipodi:docname="OLED.svg">
  <defs
     id="defs4282" />
  <sodipodi:namedview
     id="base"
     pagecolor="#ffffff"
     bordercolor="#666666"
     borderopacity="1.0"
     inkscape:pageopacity="0.0"
     inkscape:pageshadow="2"
     inkscape:zoom="2.6601562"
     inkscape:cx="71.018535"
     inkscape:cy="144.97217"
     inkscape:document-units="px"
     inkscape:current-layer="layer1"
     showgrid="true"
     units="px"
     inkscape:snap-intersection-paths="true"
     inkscape:snap-smooth-nodes="true"
     inkscape:object-nodes="true"
     inkscape:window-width="1858"
     inkscape:window-height="1057"
     inkscape:window-x="-8"
     inkscape:window-y="-8"
     inkscape:window-maximized="1"
     showguides="false">
    <inkscape:grid
       type="xygrid"
       id="grid4828"
       spacingx="4"
       spacingy="4"
       empspacing="4" />
  </sodipodi:namedview>
  <metadata
     id="metadata4285">
    <rdf:RDF>
      <cc:Work
         rdf:about="">
        <dc:format>image/svg+xml</dc:format>
        <dc:type
           rdf:resource="http://purl.org/dc/dcmitype/StillImage" />
        <dc:title></dc:title>
      </cc:Work>
    </rdf:RDF>
  </metadata>
  <g
     inkscape:label="Layer 1"
     inkscape:groupmode="layer"
     id="layer1"
     transform="translate(0,-796.36219)">
    <path
       style="opacity:1;fill:#e6e6e6;stroke:#000000;stroke-width:4;stroke-miterlimit:4;stroke-dasharray:none"
       d="M 32 16 C 23.135995 16 16 23.136 16 32 L 16 224 C 16 232.864 23.135995 240 32 240 L 63.529297 240 L 80 232 L 176 232 L 192.09375 240 L 224 240 C 232.86401 240 240 232.864 240 224 L 240 32 C 240 23.136 232.86401 16 224 16 L 32 16 z M 36 28 L 52 28 A 12 12 0 0 1 64 40 A 12 12 0 0 1 52 52 L 36 52 A 12 12 0 0 1 24 40 A 12 12 0 0 1 36 28 z M 204 28 L 220 28 A 12 12 0 0 1 232 40 A 12 12 0 0 1 220 52 L 204 52 A 12 12 0 0 1 192 40 A 12 12 0 0 1 204 28 z M 92 32 A 8 8.0000038 0 0 1 100 40 A 8 8.0000038 0 0 1 92 48 A 8 8.0000038 0 0 1 84 40 A 8 8.0000038 0 0 1 92 32 z M 116 32 A 8 8.0000038 0 0 1 124 40 A 8 8.0000038 0 0 1 116 48 A 8 8.0000038 0 0 1 108 40 A 8 8.0000038 0 0 1 116 32 z M 140 32 A 8 8.0000038 0 0 1 148 40 A 8 8.0000038 0 0 1 140 48 A 8 8.0000038 0 0 1 132 40 A 8 8.0000038 0 0 1 140 32 z M 164 32 A 8 8.0000038 0 0 1 172 40 A 8 8.0000038 0 0 1 164 48 A 8 8.0000038 0 0 1 156 40 A 8 8.0000038 0 0 1 164 32 z M 36 204 L 52 204 A 12 12 0 0 1 64 216 A 12 12 0 0 1 52 228 L 36 228 A 12 12 0 0 1 24 216 A 12 12 0 0 1 36 204 z M 204 204 L 220 204 A 12 12 0 0 1 232 216 A 12 12 0 0 1 220 228 L 204 228 A 12 12 0 0 1 192 216 A 12 12 0 0 1 204 204 z "
       transform="translate(0,796.36219)"
       id="rect4867" />
    <path
       style="fill:none;fill-rule:evenodd;stroke:#000000;stroke-width:1px;stroke-linecap:butt;stroke-linejoin:miter;stroke-opacity:1"
       d="m 0,924.36219 -16,0"
       id="path6227"
       inkscape:connector-curvature="0" />
    <path
       style="fill:none;fill-rule:evenodd;stroke:#000000;stroke-width:1px;stroke-linecap:butt;stroke-linejoin:miter;stroke-opacity:1"
       d="m 256,924.36219 16,0"
       id="path6229"
       inkscape:connector-curvature="0" />
    <path
       style="fill:none;fill-rule:evenodd;stroke:#000000;stroke-width:1px;stroke-linecap:butt;stroke-linejoin:miter;stroke-opacity:1"
       d="m 128,796.36219 0,-16"
       id="path6231"
       inkscape:connector-curvature="0" />
    <path
       style="fill:none;fill-rule:evenodd;stroke:#000000;stroke-width:1px;stroke-linecap:butt;stroke-linejoin:miter;stroke-opacity:1"
       d="m 64,796.36219 0,-16"
       id="path6235"
       inkscape:connector-curvature="0" />
    <path
       style="fill:none;fill-rule:evenodd;stroke:#000000;stroke-width:1px;stroke-linecap:butt;stroke-linejoin:miter;stroke-opacity:1"
       d="m 64,1052.3622 0,16"
       id="path6237"
       inkscape:connector-curvature="0" />
    <path
       style="fill:none;fill-rule:evenodd;stroke:#000000;stroke-width:1px;stroke-linecap:butt;stroke-linejoin:miter;stroke-opacity:1"
       d="m 0,860.36219 -16,0"
       id="path6239"
       inkscape:connector-curvature="0" />
    <path
       style="fill:none;fill-rule:evenodd;stroke:#000000;stroke-width:1px;stroke-linecap:butt;stroke-linejoin:miter;stroke-opacity:1"
       d="m 0,988.36219 -16,0"
       id="path6241"
       inkscape:connector-curvature="0" />
    <path
       style="fill:none;fill-rule:evenodd;stroke:#000000;stroke-width:1px;stroke-linecap:butt;stroke-linejoin:miter;stroke-opacity:1"
       d="m 256,988.36219 16,0"
       id="path6243"
       inkscape:connector-curvature="0" />
    <path
       style="fill:none;fill-rule:evenodd;stroke:#000000;stroke-width:1px;stroke-linecap:butt;stroke-linejoin:miter;stroke-opacity:1"
       d="m 256,860.36219 16,0"
       id="path6245"
       inkscape:connector-curvature="0" />
    <path
       style="fill:none;fill-rule:evenodd;stroke:#000000;stroke-width:1px;stroke-linecap:butt;stroke-linejoin:miter;stroke-opacity:1"
       d="m 192,796.36219 0,-16"
       id="path6247"
       inkscape:connector-curvature="0" />
    <path
       style="fill:none;fill-rule:evenodd;stroke:#000000;stroke-width:1px;stroke-linecap:butt;stroke-linejoin:miter;stroke-opacity:1"
       d="m 128,1052.3622 0,16"
       id="path6249"
       inkscape:connector-curvature="0" />
    <path
       style="fill:none;fill-rule:evenodd;stroke:#000000;stroke-width:1px;stroke-linecap:butt;stroke-linejoin:miter;stroke-opacity:1"
       d="m 192,1052.3622 0,16"
       id="path6251"
       inkscape:connector-curvature="0" />
    <path
       style="fill:#333333;fill-rule:evenodd;stroke:none;stroke-width:1px;stroke-linecap:butt;stroke-linejoin:miter;stroke-opacity:1"
       d="m 48,972.36219 32,40.00001 0,24 96,0 0,-24 32,-40.00001 z"
       id="path4872"
       inkscape:connector-curvature="0"
       sodipodi:nodetypes="ccccccc" />
    <rect
       style="opacity:1;fill:#ffffff;stroke:#000000;stroke-width:4;stroke-miterlimit:4;stroke-dasharray:none"
       id="rect4869"
       width="192"
       height="112"
       x="32"
       y="860.36218"
       ry="7.3828123e-006" />
  </g>
</svg>
